<?xml version="1.0" encoding="UTF-8"?>
<svg id="Layer_2" data-name="Layer 2" xmlns="http://www.w3.org/2000/svg" viewBox="0 0 106.45 106.45">
  <defs>
    <style>
      .cls-1 {
        fill: #99f;
      }

      .cls-2 {
        fill: #00005b;
      }
    </style>
  </defs>
  <g id="Layer_1-2" data-name="Layer 1">
    <g>
      <path id="Vector" class="cls-2" d="M87.36,0H19.09C8.55,0,0,8.55,0,19.09v68.27c0,10.54,8.55,19.09,19.09,19.09h68.27c10.54,0,19.09-8.55,19.09-19.09V19.09c0-10.54-8.55-19.09-19.09-19.09Z"/>
      <path id="Vector_2" data-name="Vector 2" class="cls-1" d="M27.21,28.26h15.67l17.58,49.07h-14.36l-2.42-7.47h-18.38l-2.42,7.47h-13.77L27.21,28.26ZM39.88,58.21l-5.35-16.48-5.35,16.48h10.69Z"/>
      <path id="Vector_3" data-name="Vector 3" class="cls-1" d="M97.33,57.11c0,1.76-.15,3.66-.37,5.13h-23.95c1.46,3.66,4.98,5.42,10.47,5.42,3.95,0,7.4-.73,10.84-2.34l.15,10.18c-3.74,1.9-7.76,2.56-12.96,2.56-12.82,0-21.39-7.1-21.39-19.99,0-11.79,8.2-19.63,19.04-19.63s18.16,7.18,18.16,18.68ZM72.58,53.89h12.82c-.29-3.44-2.42-5.86-6.15-5.86s-5.86,1.9-6.66,5.86Z"/>
    </g>
  </g>
</svg>