<?xml version="1.0" encoding="UTF-8"?>
<svg id="Layer_2" data-name="Layer 2" xmlns="http://www.w3.org/2000/svg" viewBox="0 0 32.77 35.02">
  <defs>
    <style>
      .cls-1 {
        fill: #282828;
      }
    </style>
  </defs>
  <g id="Layer_1-2" data-name="Layer 1">
    <path class="cls-1" d="M1.02,25.24v.79c-.09-.27-.17-.53,0-.79ZM23.28,15.48c.56-.69.9-3.4.87-4.32-.14-4.52-3.57-9.15-8.46-8.7s-7.7,6.18-6.96,10.74c1.01,6.24,7.62,9.96,12.66,5.22-.34,0-1.01,0-1.3.08-.2.06-.44.41-.77.5-1.83.49-2.98-2.01-1.31-3.04.69-.43,1.27-.3,1.93.11.13.08.16.27.21.3.43.25,2.78-.46,3.14-.9ZM5.12,13.92l.17.17h1.96c.39-.38.07-.98.05-1.44C6.92.83,20.25-3.56,24.56,7.18c1.05,2.62.64,3.84.74,6.4.03.67.43.4-.17,1.2-1.04,1.37-2.69,2.16-4.39,2.3-1.42.11-.88-.41-1.54-.63-1.56-.5-1.78,2.08-.21,1.89.55-.07.64-.53.75-.56.38-.09,1.24-.05,1.79-.15,1.77-.32,3.22-1.2,4.29-2.63.15-.2.37-.76.53-.85.29-.17.8.08,1.11-.16.14-.11.15-.25.17-.41.05-.41.06-3.83-.06-3.99l-1.28-.22C25.31,3.48,19.96-1.47,13.75.4c-4.06,1.22-6.57,5.07-7.37,9.07-.27.08-1.16-.12-1.25.19v4.27ZM32.09,23.87c-1.28-.46-2.8-.67-4.13-1.07-2.09-.62-4.08-1.44-6-2.48.16,1.12.33,2.26.24,3.41-.23,2.83-2.06,5.22-3.29,7.66-.24.05-.16-.09-.2-.25-.08-.25-.09-.5-.18-.75-.21-.58-1.19-2.24-1.18-2.63,0-.66,1.32-1.36,1.22-1.8-.09-.37-1.95-2.31-2.32-2.3-.18,0-2.12,1.94-2.2,2.19-.19.65,1.21,1.29,1.2,1.88-.01.52-.72,1.49-.95,2.05-.18.4-.3,1.21-.46,1.49-.09.16-.14.12-.23,0-.96-2.03-2.5-4.01-3-6.23-.34-1.49-.15-3.1-.06-4.62-1.82,1.02-3.79,1.66-5.77,2.25-.64.19-3.54.88-4.77,1.35,2.66,6.45,9,10.99,16.4,10.99s13.68-4.48,16.36-10.87c-.22-.12-.47-.21-.68-.28Z"/>
  </g>
</svg>