<?xml version="1.0" encoding="UTF-8"?>
<svg id="Layer_2" data-name="Layer 2" xmlns="http://www.w3.org/2000/svg" viewBox="0 0 25.67 22.75">
  <defs>
    <style>
      .cls-1 {
        fill: #fff;
      }
    </style>
  </defs>
  <g id="Layer_1-2" data-name="Layer 1">
    <g>
      <path class="cls-1" d="M22.49,11.44v10.36c0,.53-.43.96-.96.96h-5.12v-8.85h-7.14v8.85h-5.12c-.53,0-.96-.43-.96-.96v-10.36l9.66-6.81,9.66,6.81Z"/>
      <path class="cls-1" d="M24.17,10.98c-.3,0-.6-.09-.86-.27L12.83,3.32,2.35,10.71c-.26.18-.56.27-.86.27-.47,0-.93-.22-1.22-.63-.47-.67-.31-1.6.36-2.08L11.97.27c.52-.36,1.2-.36,1.72,0l11.34,8c.67.47.83,1.41.36,2.08-.29.41-.75.63-1.22.63Z"/>
    </g>
  </g>
</svg>