<?xml version="1.0" encoding="UTF-8"?>
<svg id="Layer_2" data-name="Layer 2" xmlns="http://www.w3.org/2000/svg" viewBox="0 0 116.31 39.15">
  <defs>
    <style>
      .cls-1 {
        fill: #001e36;
      }
    </style>
  </defs>
  <g id="Layer_1-2" data-name="Layer 1">
    <path class="cls-1" d="M28.13,26.13s.01.04.03.08c.19.49.77.67.85.74,5.82,4.77,7.89,7.89,9.31,9.38.34.35.94.93,1.19,1.3.4.58.06,1.17-.53,1.43-.66.3-1.84-.2-2.53-.34-11.19-2.28-22.46-4.85-33.49-7.86-.59-.16-2.27-.58-2.65-.94-.1-.09-.3-.37-.31-.51-.01-.13,0-.57.03-.68.07-.27,1.54-1.39,1.85-1.67C10.79,19.15,19.71,11.32,28.7,3.48c.56-.49.82-1.03,1.74-.75,1.39.42.31,1.87-.02,2.7-1.32,3.34-2.48,6.74-3.43,10.21-.18.67-.44,1.32-.57,2.01C30.87,13.67,45.65,1.54,68.22.13c26-1.62,43.96,12.13,48.09,15.48-15.34-7.41-2.69,6.68-3.9,8.54-1.97,3.04-17.97-5.74-6.81,7.17-9.22-8.25-21.82-16.66-26.84-17.78-25.6-5.7-50.8,11.94-50.63,12.58Z"/>
  </g>
</svg>