<?xml version="1.0" encoding="UTF-8"?>
<svg id="Layer_2" data-name="Layer 2" xmlns="http://www.w3.org/2000/svg" viewBox="0 0 151.77 98.35">
  <defs>
    <style>
      .cls-1, .cls-2 {
        fill: #001e36;
      }

      .cls-3 {
        fill: #ffb400;
      }

      .cls-2 {
        font-family: ComicSansMS, 'Comic Sans MS';
        font-size: 22.11px;
      }

      .cls-4 {
        fill: #ed1c24;
      }
    </style>
  </defs>
  <g id="Layer_1-2" data-name="Layer 1">
    <g>
      <path class="cls-1" d="M125.09,57.3c1.15.23,1.29-.56,1.78-1.28,1.79-2.65,8-18.1,8.88-18.64.78-.49,3.2-.14,3.86.68.83,1.04-.13,7.9-.07,10.09.18,7.6,1.46,18.49,3.77,25.7.92,2.87,4.63,9.1,4.62,10.96,0,.82.11,1.02-.86.85-1.44-.25-3.25-4.64-3.88-6.13-5.03-11.75-4.57-24.8-6.41-37.25-4.13,5.64-6.63,12.87-9.19,19.44-.73,1.52-4.13,1.71-4.62.22l-.96-18.56,1.16-1.65c.32.43,1.95,1.75,1.95,1.94v13.62Z"/>
      <path class="cls-1" d="M67.81,68.98c-.39-.4-.46-8.82-.63-10.22-.74-6.05-2.92-11.77-3.76-17.78l1.24-.84,1.48.9,3.88,19.04c4.02-13.25,8.53-26.49,14.81-38.85,2.41-4.75,9.69-18.25,14.26-20.22,1.33-.57,2.37-.76,2.63.96-6.21,3.54-10.03,9.97-13.44,16.04-6.96,12.39-12.72,28.16-15.78,42.05-.76,3.44.31,9.93-4.7,8.93Z"/>
      <path class="cls-1" d="M54.43,45.65c1.69,1.11.98,10.04,1.22,12.41.27,2.69,1.81,5.78,2.06,7.99.22,1.95-1.65,2.64-2.56.85s-1.45-9.78-1.79-10.17c-1.3-.27-.89.18-1.24.72-2.4,3.71-2.78,7.71-8.8,6.27-12.6-3,5.43-35.04,17.01-24.24,1.89,1.76,2.06,4.4-1.04,3.84-6.52-10.75-20.43,9.18-17.47,15.22,3.08,6.27,7.03.36,8.48-3.49.71-1.88,1.63-8.05,2.25-8.87.45-.6,1.41-.86,1.9-.54Z"/>
      <path class="cls-1" d="M117.28,64.5c-.22.25-5.68,1.55-6.43,1.63-10.12,1.14-13.48-5.83-8.67-14.22.95-1.66,6.84-9.15,8.26-9.54,1.59-.44,2.15.94,1.76,2.31-.36,1.28-2.38,1.95-3.24,2.9-2.77,3.03-10.01,11.62-4.4,14.96,4.73,2.83,9.85-1.37,11.83-.75.99.31,1.22,2.32.88,2.71Z"/>
      <path class="cls-1" d="M85.89,66.75c-.24-.05-3.19-1.69-3.58-1.98-5.36-4.06-3.28-9.82-.27-14.65,1.02-1.63,7.56-10.47,9.68-8.39.6,3.01-2.61,3.92-4.11,5.62-8.67,9.79-8.95,18.48,6.91,16.31l.57,1.7-.87,1.39c-2.48-.34-6.04.47-8.34,0Z"/>
      <path class="cls-3" d="M134.54,72.86c-2.98,1.2-6.13-.33-9.18-.54-15-1.03-30.03-1.28-45.06-.59l-18.61.86,23.61-1.97c12.77.49,25.66-.56,38.42,0,2.16.1,7.09.25,8.86.6.89.17,1.68.77,1.96,1.65Z"/>
      <path class="cls-1" d="M103.96,58.96c-.24-1.14.57-1.29,1.28-1.77,1.07-.73,5.47-3.27,6.48-3.53.76-.19,2.27-.29,2.23.58s-9.06,5.53-9.99,4.72Z"/>
      <path class="cls-1" d="M91.72,53.96l-.33,1.71c-2.35.53-4.72,1.79-7.02,2.34-2.58.62-2.99-.85-.32-2,1.13-.48,7.1-2.64,7.67-2.05Z"/>
      <path class="cls-3" d="M6.64,29.49c2.58-7.9,5.64-15.94,10.12-22.97,2.19-3.44,5.34-9.18,9.93-5.13,11.24,9.92,7.68,53.01,5.42,67.19l-1.85,2.05-1.3-.92c.58-6.07,2.13-12.11,2.7-18.26,1.01-10.95.96-23.25-1.59-33.99-1.03-4.34-2.89-10.61-6.95-12.95-2.2.38-9.15,13.31-10.29,15.88-.87,1.97-4.34,10.47-3.71,11.85.36.8,2.94,3.35,3.76,4.62,5.47,8.54,7.33,15.69,2.93,25.43-2.16,4.77-8.76,12.25-12.76,4.97-4.11-7.49-.02-24.89,2.25-33.06-.1-2.79-10.14-4.42-2.38-7.39l3.71,2.66ZM9.79,65.43c2.21-2.13,4.79-8.2,5.14-11.26.8-6.92-2.42-13.72-7.72-18.01-1.22,8.15-3.69,16.33-2.09,24.6.41,2.13.9,4.64,2.91,5.85.56-.38,1.27-.71,1.75-1.18Z"/>
      <circle class="cls-4" cx="30.31" cy="74.36" r="2.48"/>
      <circle class="cls-4" cx="150.2" cy="89.1" r="1.57"/>
      <text class="cls-2" transform="translate(61.68 91.45)"><tspan x="0" y="0">Design</tspan></text>
    </g>
  </g>
</svg>