<?xml version="1.0" encoding="UTF-8"?>
<svg id="Layer_2" data-name="Layer 2" xmlns="http://www.w3.org/2000/svg" viewBox="0 0 110.01 107.26">
  <defs>
    <style>
      .cls-1 {
        fill: #99f;
      }

      .cls-2 {
        fill: #00005b;
      }
    </style>
  </defs>
  <g id="Layer_1-2" data-name="Layer 1">
    <g>
      <path class="cls-2" d="M19.48,0h71.05c10.77,0,19.48,8.71,19.48,19.48v68.3c0,10.77-8.71,19.48-19.48,19.48H19.48c-10.77,0-19.48-8.71-19.48-19.48V19.48C0,8.71,8.71,0,19.48,0Z"/>
      <g>
        <path class="cls-1" d="M26.13,75.18V27.96c0-.32.14-.5.46-.5.78,0,1.51,0,2.57-.05,1.1-.05,2.25-.05,3.48-.09s2.57-.05,3.99-.09,2.8-.05,4.17-.05c3.76,0,6.88.46,9.44,1.42,2.29.78,4.4,2.06,6.14,3.76,1.47,1.47,2.61,3.25,3.35,5.23.69,1.93,1.05,3.9,1.05,5.96,0,3.94-.92,7.2-2.75,9.76s-4.4,4.49-7.38,5.59c-3.12,1.15-6.55,1.56-10.31,1.56-1.1,0-1.83,0-2.29-.05s-1.1-.05-1.97-.05v14.71c.05.32-.18.6-.5.64h-8.89c-.37,0-.55-.18-.55-.6v.05ZM36.12,36.35v15.4c.64.05,1.24.09,1.79.09h2.43c1.79,0,3.58-.28,5.27-.83,1.47-.41,2.75-1.28,3.76-2.43.96-1.15,1.42-2.7,1.42-4.72.05-1.42-.32-2.84-1.05-4.08-.78-1.19-1.88-2.11-3.21-2.61-1.7-.69-3.53-.96-5.41-.92-1.19,0-2.25,0-3.12.05-.92-.05-1.56,0-1.88.05h0Z"/>
        <path class="cls-1" d="M67.38,39.05h8.02c.46,0,.83.32.96.73.14.37.23.73.28,1.15.09.46.18.96.23,1.42.05.5.09,1.05.09,1.65,1.38-1.6,3.03-2.93,4.9-3.94,2.11-1.19,4.54-1.79,6.97-1.79.32-.05.6.18.64.5v9.12c0,.37-.23.5-.73.5-1.65-.05-3.35.09-4.95.46-1.33.28-2.61.69-3.85,1.24-.87.41-1.7.96-2.34,1.7v23.38c0,.46-.18.64-.6.64h-9.03c-.37.05-.69-.18-.73-.55v-25.58c0-1.1,0-2.25-.05-3.44s-.05-2.38-.09-3.58c0-1.05-.09-2.06-.18-3.12-.05-.23.09-.46.32-.5,0-.05.09-.05.14,0h0Z"/>
      </g>
    </g>
  </g>
</svg>