<?xml version="1.0" encoding="UTF-8"?>
<svg id="Layer_2" data-name="Layer 2" xmlns="http://www.w3.org/2000/svg" viewBox="0 0 22.61 28.32">
  <defs>
    <style>
      .cls-1 {
        fill: #282828;
      }
    </style>
  </defs>
  <g id="Layer_1-2" data-name="Layer 1">
    <g>
      <path class="cls-1" d="M12.57.05c1.69.19,3.67,1.48,4.72,2.79,3.81,4.8.62,12.04-5.5,12.39-6.66.38-10.6-7.3-6.37-12.5C6.42,1.49,8.41.23,10.02.05c.56-.06,1.98-.06,2.55,0Z"/>
      <path class="cls-1" d="M5.07,13.82c.43.35.82.73,1.28,1.04,3.17,2.15,7.34,2,10.36-.34.15-.11.73-.68.82-.68,2.49,1.6,4.35,4.37,4.88,7.3.46,2.49.25,4.11-2.05,5.43-4.16,2.39-14.27,2.37-18.34-.23C.08,25.11-.2,23.88.1,21.66c.43-3.18,2.31-6.07,4.96-7.83Z"/>
    </g>
  </g>
</svg>