<?xml version="1.0" encoding="UTF-8"?>
<svg id="Layer_2" data-name="Layer 2" xmlns="http://www.w3.org/2000/svg" viewBox="0 0 110.01 107.26">
  <defs>
    <style>
      .cls-1 {
        fill: #001e36;
      }

      .cls-2 {
        fill: #31a8ff;
      }
    </style>
  </defs>
  <g id="Layer_1-2" data-name="Layer 1">
    <g>
      <path class="cls-1" d="M19.48,0h71.05c10.77,0,19.48,8.71,19.48,19.48v68.3c0,10.77-8.71,19.48-19.48,19.48H19.48c-10.77,0-19.48-8.71-19.48-19.48V19.48C0,8.71,8.71,0,19.48,0Z"/>
      <g>
        <path class="cls-2" d="M24.75,75.22V28.05c0-.32.14-.5.46-.5.78,0,1.51,0,2.57-.05,1.1-.05,2.25-.05,3.48-.09,1.24-.05,2.57-.05,3.99-.09,1.42-.05,2.8-.05,4.17-.05,3.76,0,6.88.46,9.44,1.42,2.29.78,4.4,2.06,6.14,3.76,1.47,1.47,2.61,3.25,3.35,5.23.69,1.93,1.05,3.9,1.05,5.96,0,3.94-.92,7.2-2.75,9.76-1.83,2.57-4.4,4.49-7.38,5.59-3.12,1.15-6.55,1.56-10.31,1.56-1.1,0-1.83,0-2.29-.05s-1.1-.05-1.97-.05v14.71c.05.32-.18.6-.5.64h-8.89c-.37,0-.55-.18-.55-.6ZM34.75,36.4v15.4c.64.05,1.24.09,1.79.09h2.43c1.79,0,3.58-.28,5.27-.83,1.47-.41,2.75-1.28,3.76-2.43.96-1.15,1.42-2.7,1.42-4.72.05-1.42-.32-2.84-1.05-4.08-.78-1.19-1.88-2.11-3.21-2.61-1.7-.69-3.53-.96-5.41-.92-1.19,0-2.25,0-3.12.05-.92-.05-1.56,0-1.88.05h0Z"/>
        <path class="cls-2" d="M88.01,49c-1.38-.73-2.84-1.24-4.4-1.56-1.7-.37-3.39-.6-5.13-.6-.92-.05-1.88.09-2.75.32-.6.14-1.1.46-1.42.92-.23.37-.37.83-.37,1.24s.18.83.46,1.19c.41.5.96.92,1.56,1.24,1.05.55,2.15,1.05,3.25,1.51,2.48.83,4.86,1.97,7.06,3.35,1.51.96,2.75,2.25,3.62,3.8.73,1.47,1.1,3.07,1.05,4.72.05,2.15-.6,4.31-1.79,6.1-1.28,1.83-3.07,3.25-5.13,4.08-2.25.96-5,1.47-8.3,1.47-2.11,0-4.17-.18-6.23-.6-1.6-.28-3.21-.78-4.68-1.47-.32-.18-.55-.5-.5-.87v-7.98c0-.14.05-.32.18-.41.14-.09.28-.05.41.05,1.79,1.05,3.67,1.79,5.68,2.25,1.74.46,3.58.69,5.41.69s2.98-.23,3.8-.64c.73-.32,1.24-1.1,1.24-1.93,0-.64-.37-1.24-1.1-1.83-.73-.6-2.25-1.28-4.49-2.15-2.34-.83-4.49-1.93-6.51-3.3-1.42-1.01-2.61-2.34-3.48-3.9-.73-1.47-1.1-3.07-1.05-4.68,0-1.97.55-3.85,1.56-5.55,1.15-1.83,2.84-3.3,4.81-4.22,2.15-1.1,4.86-1.6,8.11-1.6,1.88,0,3.8.14,5.68.41,1.38.18,2.7.55,3.94,1.05.18.05.37.23.46.41.05.18.09.37.09.55v7.47c0,.18-.09.37-.23.46-.41.09-.64.09-.83,0Z"/>
      </g>
    </g>
  </g>
</svg>