<?xml version="1.0" encoding="UTF-8"?>
<svg id="Layer_2" data-name="Layer 2" xmlns="http://www.w3.org/2000/svg" viewBox="0 0 27.36 23.29">
  <defs>
    <style>
      .cls-1 {
        fill: #282828;
      }
    </style>
  </defs>
  <g id="Layer_1-2" data-name="Layer 1">
    <g>
      <path class="cls-1" d="M27.36,6.52v5.43H0v-5.43c0-.82.66-1.48,1.48-1.48h24.41c.82,0,1.48.66,1.48,1.48Z"/>
      <path class="cls-1" d="M25.88,13.69H1.48c-.82,0-1.48-.66-1.48-1.48v9.47c0,.89.8,1.61,1.78,1.61h23.8c.98,0,1.78-.72,1.78-1.61v-9.47c0,.82-.66,1.48-1.48,1.48ZM16.56,16.82c0,.2-.14.37-.31.37h-5.14c-.17,0-.31-.17-.31-.37v-1.42c0-.2.14-.37.31-.37h5.14c.17,0,.31.17.31.37v1.42Z"/>
      <path class="cls-1" d="M19.68,1.47v2.92h-1.61v-1.71c0-.59-.48-1.07-1.07-1.07h-6.7c-.59,0-1.07.48-1.07,1.07v1.71h-1.61V1.47c0-.81.66-1.47,1.47-1.47h9.13c.81,0,1.47.66,1.47,1.47Z"/>
    </g>
  </g>
</svg>