<?xml version="1.0" encoding="UTF-8"?>
<svg id="Layer_2" data-name="Layer 2" xmlns="http://www.w3.org/2000/svg" viewBox="0 0 39.47 42.85">
  <defs>
    <style>
      .cls-1 {
        fill: #31a8ff;
      }
    </style>
  </defs>
  <g id="Layer_1-2" data-name="Layer 1">
    <path class="cls-1" d="M5.4,12.07c-1.43.56-2.83,1.19-4.19,1.9-.34.18-.91.7-1.15.12-.16-.38.06-.51.25-.77C3.25,9.16,6.2,5.03,9.18.9c.11-.15.52-.82.63-.86C9.86.02,10.04,0,10.1,0s.19.07.23.11c.17.14.42.84.51,1.09,1.75,4.56,3.33,9.25,4.78,13.91.09.29.35.77.25,1.06-.09.26-.32.43-.59.29-.17-.09-.44-.32-.61-.45-1.47-1.15-2.98-2.32-4.39-3.56-.04-.03-.36-.37-.39-.34-.01.16-.05.34-.09.5-.85,3.52-2.28,8.24-.25,11.58,1.73,2.84,4.87,3.82,8.06,3.46.33-.04.65-.12.98-.12-.11-.86-.14-1.72-.12-2.58.1-6.36,3.3-12.61,9.88-14.26,1.34-.34,3.05-.34,4.33.2,3.53,1.49,3.65,6.17,2.37,9.24-1.93,4.61-6.41,7.77-11,9.4-.22.08-.45.17-.67.26l-1.33.37c.12.16.26.31.38.47,1.73,2.26,3.96,4.12,6.48,5.43,2.77,1.45,6.13,2.14,9.26,1.84.42-.04.83-.12,1.25-.13.06.04.03.27.02.34-.05.58-.3,1.39-.47,1.96-.2.68-.51,1.78-.84,2.38-.16.29-.21.32-.54.35-.37.04-.84.04-1.21.03-7.12-.18-14.37-4.7-16.95-11.47-.08-.22-.18-.44-.24-.66-.22.02-.45.06-.67.08-4.09.37-8.35-.62-11.07-3.89-3.21-3.87-3.25-10.11-1.44-14.6.07-.18.13-.38.21-.56-.28.09-.55.22-.83.33ZM21.88,26.54c3.11-1.27,6.04-3.71,7.99-6.41.88-1.22,1.88-2.81,1.41-4.39-.51-1.68-1.85-1.52-3.17-.85-4.27,2.18-5.78,7.34-6.78,11.67,0,.03-.04.18-.02.19.18-.08.38-.12.57-.2Z"/>
  </g>
</svg>